PathFileType	4	(X/Y/Z)	TVC_32_BWA_06_walk_RCNL2025.trc
DataRate	CameraRate	NumFrames	NumMarkers	Units	OrigDataRate	OrigDataStartFrame	OrigNumFrames
100	100	12	27	mm	100	242	386
Frame#	Time	R_Shoulder			L_Shoulder			C7			J_Notch			R_Elbow			L_Elbow			R_Wrist			L_Wrist			R_Asis			L_Asis			R_Psis			L_Psis			Sacral			Thoracic			Sternum			R_Thigh_Lateral			R_Knee_Lateral			R_Shank_Lateral			R_Ankle_Lateral			R_Heel			R_Toe			L_Thigh_Lateral			L_Knee_Lateral			L_Shank_Lateral			L_Ankle_Lateral			L_Heel			L_Toe		
		X1	Y1	Z1	X2	Y2	Z2	X3	Y3	Z3	X4	Y4	Z4	X5	Y5	Z5	X6	Y6	Z6	X7	Y7	Z7	X8	Y8	Z8	X9	Y9	Z9	X10	Y10	Z10	X11	Y11	Z11	X12	Y12	Z12	X13	Y13	Z13	X14	Y14	Z14	X15	Y15	Z15	X16	Y16	Z16	X17	Y17	Z17	X18	Y18	Z18	X19	Y19	Z19	X20	Y20	Z20	X21	Y21	Z21	X22	Y22	Z22	X23	Y23	Z23	X24	Y24	Z24	X25	Y25	Z25	X26	Y26	Z26	X27	Y27	Z27
242	2.41000000	106.208733	1487.870483	552.177673	92.872299	1451.084595	179.962646	53.761257	1521.479492	367.217041	210.072922	1413.208130	373.447388	-14.428782	1157.195190	665.286194	79.729286	1125.022339	67.835335	26.680148	885.988281	635.503479	217.712677	889.122437	78.203541	118.729919	1007.337341	511.083099	84.163498	1035.528931	232.656464	-79.139328	1040.090942	449.692200	-91.582054	1044.942017	347.594330	-85.360691	1042.516479	398.643265	-41.958313	1272.921875	393.857544	221.290634	1265.841309	370.945221	74.315735	629.331299	563.224915	139.062561	502.881897	502.264435	112.318390	295.832245	558.655945	117.201508	78.628685	483.090546	58.191807	52.424179	425.048859	261.954498	39.347740	462.445312	12.680340	699.548096	131.092957	8.065247	520.626404	164.385986	-121.214767	409.391327	112.916588	-266.940704	170.783676	178.954636	-315.744263	200.965347	238.920410	-181.276489	51.256447	194.441055
243	2.42000000	113.666405	1488.589233	553.675659	98.622475	1451.075317	181.549652	60.524227	1522.032471	368.891632	216.754166	1413.581299	374.667603	-3.650332	1157.309692	668.959167	80.375038	1124.832764	70.480988	41.871313	886.833130	639.107635	215.333458	887.151978	78.590448	124.925934	1007.821045	513.529358	90.665901	1036.252441	234.927261	-72.807266	1040.742065	451.824310	-85.210831	1045.375122	349.594147	-79.009048	1043.058594	400.709229	-35.313622	1273.603638	396.167969	227.800095	1266.216675	372.568390	77.157494	629.541382	564.667236	141.010345	502.623901	503.539703	113.234589	295.493378	559.401733	117.472260	78.593452	483.282379	58.249077	52.460262	424.927002	261.953888	39.262875	462.484039	27.282101	700.458862	130.078476	25.893034	521.337097	161.891556	-104.353844	411.035278	111.074593	-256.475769	176.919250	179.097672	-303.879608	208.659790	239.185715	-173.399368	55.055428	194.338104
244	2.43000000	120.940536	1489.178345	555.084534	104.142456	1450.969604	183.046509	67.117821	1522.482666	370.474487	223.276260	1413.849243	375.762482	7.275807	1157.249878	672.586304	80.659760	1124.637085	73.029427	57.166754	887.592133	642.734985	212.819908	885.349365	78.793753	130.897186	1008.125488	516.011902	97.155838	1036.762085	237.129990	-66.644142	1041.243042	453.805573	-78.952103	1045.655762	351.460022	-72.798122	1043.449402	402.632797	-28.801313	1274.157104	398.330963	234.177429	1266.494385	374.054932	80.045753	629.700500	566.174805	143.046951	502.357788	504.942627	114.189354	295.178864	560.215881	117.716934	78.554276	483.524017	58.304249	52.520531	424.865723	261.950684	39.177219	462.583710	41.828232	701.532837	129.054001	43.584930	522.313843	159.472336	-87.333382	412.635406	109.322769	-244.562393	182.372818	179.161728	-290.862518	215.169434	239.406052	-163.238190	58.955708	193.739212
245	2.44000000	128.052719	1489.679321	556.406616	109.460320	1450.809692	184.461533	73.562775	1522.856934	371.974609	229.653427	1414.039185	376.745575	18.311205	1157.074707	676.127319	80.649971	1124.487915	75.491585	72.539368	888.315643	646.388885	210.185631	883.721893	78.857239	136.647827	1008.279785	518.519104	103.640930	1037.090820	239.274582	-60.636559	1041.627686	455.637238	-72.792084	1045.837646	353.194489	-66.714321	1043.732666	404.415863	-22.411659	1274.607300	400.357910	240.429047	1266.699829	375.416443	83.043694	629.822021	567.734619	145.191864	502.092926	506.427551	115.229500	294.904266	561.056824	117.919670	78.507347	483.786011	58.344780	52.614204	424.899078	261.950592	39.098164	462.734955	56.153824	702.836304	128.066818	60.972809	523.600525	157.158646	-70.370872	414.233795	107.699982	-231.038223	186.837601	179.055878	-276.597626	220.149933	239.487396	-150.545456	62.683506	192.542572
246	2.45000000	135.029709	1490.125366	557.642334	114.616409	1450.638672	185.799149	79.879761	1523.177002	373.400818	235.899628	1414.173828	377.631836	29.410572	1156.843506	679.549072	80.413734	1124.432739	77.879204	87.958973	889.050171	650.068604	207.444405	882.278625	78.823793	142.196121	1008.325134	521.030396	110.121605	1037.279419	241.373169	-54.768742	1041.926880	457.325195	-66.713150	1045.967407	354.807251	-60.740946	1043.947144	406.066223	-16.129732	1274.977295	402.266449	246.558426	1266.852539	376.667999	86.165451	629.918030	569.305725	147.454376	501.830475	507.933624	116.377876	294.674072	561.878967	118.084290	78.458664	484.046936	58.360649	52.745964	425.037933	261.955627	39.028564	462.916748	70.115295	704.395447	127.180298	77.933868	525.216858	154.985413	-53.606857	415.838013	106.218987	-215.813156	190.049133	178.684113	-261.013794	223.326202	239.320709	-135.173645	65.979492	190.707382
247	2.46000000	141.898743	1490.535645	558.792908	119.648308	1450.493286	187.065765	86.087708	1523.459961	374.762024	242.028122	1414.269165	378.434814	40.528122	1156.604614	682.823120	80.019234	1124.506104	80.202652	103.395893	889.831696	653.769379	204.611732	881.026703	78.733568	147.577072	1008.311157	523.516846	116.589714	1037.372681	243.433090	-49.025280	1042.165894	458.876709	-60.699844	1046.081543	356.310394	-54.862562	1044.123718	407.593552	-9.945025	1275.290161	404.076294	252.566666	1266.965210	377.826111	89.386475	629.997009	570.827148	149.834854	501.565857	509.394135	117.635727	294.484528	562.640503	118.232544	78.425224	484.295471	58.360676	52.912830	425.251404	261.964142	38.965374	463.101196	83.604698	706.195251	126.467667	94.395699	527.154785	152.992050	-37.087360	417.413116	104.868912	-198.841965	191.829666	177.955521	-244.064056	224.530121	238.811462	-117.110100	68.610382	188.258148
248	2.47000000	148.684341	1490.916260	559.861816	124.580307	1450.398071	188.274734	92.202026	1523.717773	376.066956	248.049744	1414.334717	379.164673	51.624569	1156.387817	685.928833	79.532204	1124.727295	82.468391	118.823463	890.681396	657.482758	201.705254	879.967712	78.622917	152.839508	1008.290405	525.944031	123.028671	1037.417114	245.452179	-43.393864	1042.364380	460.300232	-54.745110	1046.204346	357.715546	-49.069487	1044.284363	409.007889	-3.861843	1275.569946	405.804169	258.453949	1267.045288	378.907104	92.666924	630.062012	572.234375	152.326981	501.294128	510.747498	118.996971	294.328979	563.307068	118.392509	78.427727	484.525055	58.366013	53.106026	425.484528	261.974182	38.902859	463.263275	96.556221	708.189819	125.994324	110.329407	529.378174	151.220932	-20.769354	418.885162	103.623383	-180.103210	192.106262	176.795227	-225.720825	223.712677	237.896454	-96.471367	70.394295	185.264709
249	2.48000000	155.407516	1491.265381	560.855408	129.429169	1450.365845	189.442215	98.233101	1523.956543	377.323822	253.970688	1414.373657	379.830017	62.670963	1156.202026	688.855591	79.012070	1125.101196	84.677498	134.220161	891.604065	661.195892	198.745071	879.095184	78.523825	158.036133	1008.307800	528.276550	129.414780	1037.458984	247.418930	-37.864826	1042.535278	461.606598	-48.851665	1046.345093	359.034241	-43.358246	1044.440186	410.320419	2.103151	1275.836060	407.462067	264.221466	1267.095703	379.926422	95.974121	630.110779	573.476868	154.920639	501.012177	511.945770	120.454269	294.198883	563.855835	118.586121	78.479019	484.726807	58.391945	53.313461	425.688873	261.988708	38.838890	463.390778	108.929924	710.315125	125.797226	125.737534	531.825928	149.715088	-4.546814	420.156189	102.452362	-159.603668	190.906204	175.157761	-205.973022	220.932083	236.545776	-73.456917	71.243385	181.811295
250	2.49000000	162.083725	1491.578003	561.782104	134.213577	1450.396729	190.580673	104.185486	1524.175903	378.540222	259.791534	1414.384766	380.440765	73.653534	1156.036255	691.603455	78.509598	1125.621948	86.825554	149.571732	892.589874	664.891022	195.754204	878.393616	78.464554	163.210663	1008.390381	530.482056	135.719574	1037.538696	249.315521	-32.425381	1042.680786	462.812164	-43.028786	1046.498291	360.279114	-37.727083	1044.589539	411.545639	7.933959	1276.095093	409.058533	269.871918	1267.116577	380.898041	99.295929	630.139099	574.529480	157.605072	500.714935	512.959473	121.995483	294.083344	564.279175	118.823898	78.579056	484.888489	58.441429	53.521172	425.833588	262.016083	38.776821	463.486023	120.682854	712.499329	125.873810	140.642822	534.421143	148.516052	11.711551	421.128662	101.333702	-137.401382	188.333847	173.040192	-184.825790	216.336426	234.761566	-48.295666	71.192085	177.972397
251	2.50000000	168.719299	1491.846069	562.650452	138.953644	1450.474609	191.698273	110.057793	1524.370483	379.722748	265.508453	1414.364258	381.009796	84.579697	1155.865479	694.181396	78.069160	1126.275024	88.902229	164.872391	893.618896	668.546356	192.758858	877.839661	78.470682	168.390991	1008.542175	532.533386	141.913422	1037.685791	251.120880	-27.053637	1042.790527	463.939545	-37.288506	1046.647217	361.461914	-32.171071	1044.718872	412.700729	13.624454	1276.338745	410.597595	275.409088	1267.106323	381.834595	102.641319	630.146790	575.393616	160.370712	500.393555	513.779358	123.603851	293.971771	564.583069	119.105888	78.716240	484.998230	58.509792	53.717091	425.903778	262.065826	38.721828	463.560150	131.761154	714.669434	126.191460	155.081879	537.084717	147.660141	28.124945	421.729553	100.260300	-113.623741	184.541550	170.487839	-162.302032	210.146805	232.577087	-21.211979	70.392899	173.800262
252	2.51000000	175.308945	1492.057983	563.468262	143.665131	1450.569336	192.800552	115.843521	1524.531738	380.876953	271.116852	1414.308350	381.551208	95.477135	1155.657715	696.605103	77.734207	1127.039673	90.892426	180.123497	894.665833	672.137085	189.788223	877.405182	78.565132	173.592316	1008.747864	534.409485	147.969452	1037.914795	252.812851	-21.719547	1042.845093	465.013763	-31.642725	1046.769775	362.590820	-26.681136	1044.807434	413.802292	19.179064	1276.549683	412.078064	280.837677	1267.063232	382.746735	106.033165	630.140076	576.090759	163.212494	500.038605	514.418457	125.265686	293.854156	564.783569	119.423332	78.870071	485.046448	58.590332	53.894939	425.896851	262.145844	38.678162	463.627289	142.124374	716.755310	126.707649	169.102661	539.747314	147.172729	44.773998	421.925812	99.242439	-88.453781	179.718597	167.584290	-138.445267	202.637833	230.053528	7.581292	69.082291	169.330139
253	2.52000000	181.835907	1492.197754	564.244080	148.355164	1450.648071	193.890488	121.533272	1524.650269	382.008850	276.615143	1414.213501	382.078033	106.386742	1155.382202	698.894470	77.550514	1127.891357	92.780220	195.330215	895.703247	675.637360	186.873322	877.060425	78.767466	178.822906	1008.980347	536.096008	153.866623	1038.223022	254.369400	-16.393753	1042.825439	466.054260	-26.099554	1046.840332	363.669739	-21.246654	1044.832886	414.862000	24.609144	1276.709229	413.496887	286.163788	1266.983276	383.641205	109.503372	630.122131	576.655945	166.136108	499.645325	514.910095	126.977821	293.719238	564.904663	119.762947	79.019722	485.030334	58.677433	54.054714	425.818024	262.261292	38.648998	463.700348	151.773712	718.696167	127.382271	182.760178	542.353394	147.065125	61.692001	421.727203	98.306671	-62.086098	174.097839	164.428757	-113.321121	194.116684	227.272293	37.869507	67.532288	164.601440
